<svg width="137" height="184" viewBox="0 0 137 184" fill="none" xmlns="http://www.w3.org/2000/svg">
<rect x="0.742188" y="56.1289" width="61" height="86" rx="19" transform="rotate(-16.7807 0.742188 56.1289)" fill="#AD1010"/>
<rect x="43.5488" y="118.423" width="25" height="68" rx="12.5" transform="rotate(-16.7807 43.5488 118.423)" fill="#A00C0C"/>
<rect x="93.3359" y="103.409" width="25" height="68" rx="12.5" transform="rotate(-16.7807 93.3359 103.409)" fill="#A00C0C"/>
<rect x="15.2578" y="24.5957" width="84" height="140" rx="29" transform="rotate(-16.7807 15.2578 24.5957)" fill="#C01414"/>
<rect x="21.3965" y="31.1006" width="48" height="93" rx="24" transform="rotate(-16.7807 21.3965 31.1006)" fill="#FF2C2C"/>
<rect x="44.2988" y="37.7725" width="76" height="51" rx="25.5" transform="rotate(-16.7807 44.2988 37.7725)" fill="#040D2F"/>
<rect x="58.5664" y="36.6025" width="60" height="36" rx="18" transform="rotate(-16.7807 58.5664 36.6025)" fill="#1D3382"/>
<rect x="63.2637" y="38.3203" width="20" height="12" rx="6" transform="rotate(-16.7807 63.2637 38.3203)" fill="#99AFFF"/>
</svg>
