<svg width="504" height="407" viewBox="0 0 504 407" fill="none" xmlns="http://www.w3.org/2000/svg">
<g filter="url(#filter0_d)">
<path d="M26 239C26 166.651 84.6507 108 157 108H347C419.349 108 478 166.651 478 239V370H26V239Z" fill="#D24A4A"/>
</g>
<rect x="404.068" y="244.909" width="36.8359" height="59.9299" fill="#464646"/>
<rect x="413.23" y="244.909" width="18.5134" height="13.8373" rx="1" fill="#E4E4E4"/>
<rect x="408.65" y="240.328" width="27.6746" height="13.8373" rx="1" fill="#E4E4E4"/>
<rect x="417.908" y="244.909" width="9.16126" height="23.094" rx="1" fill="#E4E4E4"/>
<rect x="413.23" y="240.328" width="18.5134" height="9.16126" rx="1" fill="#D0D0D0"/>
<rect x="417.908" y="249.49" width="9.16126" height="32.3507" rx="1" fill="#AF3F3F"/>
<rect x="404.068" y="203.397" width="36.8359" height="36.9313" rx="1" fill="#EFC6A7"/>
<path fill-rule="evenodd" clip-rule="evenodd" d="M404.037 204.397C404.037 203.845 404.485 203.397 405.037 203.397H439.937C440.489 203.397 440.937 203.845 440.937 204.397V208.009C440.937 208.01 440.937 208.011 440.938 208.011C440.939 208.011 440.94 208.011 440.94 208.012V216.236C440.94 216.788 440.492 217.236 439.94 217.236H437.327C436.775 217.236 436.327 216.788 436.327 216.236V213.622C436.327 213.07 435.879 212.622 435.327 212.622H409.65C409.097 212.622 408.65 213.07 408.65 213.622V216.236C408.65 216.788 408.202 217.236 407.65 217.236H405.037C404.485 217.236 404.037 216.788 404.037 216.236V208.011C404.037 208.011 404.037 208.011 404.037 208.011C404.037 208.011 404.037 208.011 404.037 208.011V204.397Z" fill="#40312E"/>
<rect width="11.4516" height="1.81317" rx="0.906583" transform="matrix(1 0 0 -1 416.762 231.931)" fill="#57352D"/>
<rect x="384.746" y="235.684" width="18.4498" height="46.1244" transform="rotate(31.6305 384.746 235.684)" fill="#76849F"/>
<rect x="445.582" y="244.909" width="18.4179" height="46.0926" fill="#76849F"/>
<rect x="384.746" y="235.684" width="18.4498" height="46.1244" transform="rotate(31.6305 384.746 235.684)" fill="#464646"/>
<rect x="445.582" y="244.909" width="18.4179" height="46.0926" fill="#464646"/>
<rect x="360.559" y="274.956" width="18.4498" height="4.61244" transform="rotate(31.6305 360.559 274.956)" fill="#777777"/>
<rect x="445.582" y="291.002" width="18.4179" height="4.67606" fill="#777777"/>
<rect x="358.137" y="278.881" width="18.4498" height="9.22488" transform="rotate(31.6305 358.137 278.881)" fill="#EFC6A7"/>
<rect x="445.582" y="295.679" width="18.4179" height="9.16126" fill="#EFC6A7"/>
<rect x="422.488" y="309.516" width="18.4179" height="59.9299" fill="#464646"/>
<rect x="402.926" y="309.516" width="18.4179" height="59.9299" fill="#464646"/>
<path d="M429.61 231.844L431.552 240.138C431.663 240.611 431.418 241.095 430.971 241.286L422.88 244.742C422.629 244.849 422.345 244.849 422.094 244.742L414.003 241.286C413.556 241.095 413.311 240.611 413.422 240.138L415.364 231.844C415.47 231.392 415.873 231.072 416.338 231.072H416.859C417.411 231.072 417.859 231.52 417.859 232.072V236.003C417.859 236.555 418.307 237.003 418.859 237.003H426.115C426.668 237.003 427.115 236.555 427.115 236.003V232.072C427.115 231.52 427.563 231.072 428.115 231.072H428.637C429.101 231.072 429.505 231.392 429.61 231.844Z" fill="#57352D"/>
<g filter="url(#filter1_d)">
<rect x="221" y="277.814" width="79" height="48" rx="7" fill="#1E222B"/>
</g>
<g filter="url(#filter2_d)">
<circle cx="262.5" cy="295.314" r="11.5" fill="#464E59"/>
</g>
<ellipse cx="262.5" cy="294.814" rx="8.5" ry="8" fill="#2A323D"/>
<ellipse cx="263" cy="293.314" rx="6" ry="6.5" fill="#464E59"/>
<rect x="282.369" y="315.979" width="34.1938" height="56.3053" rx="11.5" transform="rotate(-15.9672 282.369 315.979)" fill="#1E222A"/>
<g filter="url(#filter3_d)">
<path fill-rule="evenodd" clip-rule="evenodd" d="M283.825 290.45H279.695C275.829 290.45 272.695 287.316 272.695 283.45V253.923C272.695 250.057 275.829 246.923 279.695 246.923H296.566L297.869 246.55C303.975 244.803 310.342 248.337 312.089 254.443L340.869 355.027C342.616 361.133 339.082 367.499 332.976 369.246L319.44 373.119C313.334 374.866 306.968 371.333 305.22 365.226L283.825 290.45Z" fill="#D4DBEE"/>
</g>
<g filter="url(#filter4_d)">
<rect width="78" height="48" rx="7" transform="matrix(-1 0 0 1 248 277.814)" fill="#1E222B"/>
</g>
<g filter="url(#filter5_d)">
<ellipse rx="11" ry="11.5" transform="matrix(-1 0 0 1 207 295.314)" fill="#464E59"/>
</g>
<ellipse rx="7.5" ry="8" transform="matrix(-1 0 0 1 207.5 294.814)" fill="#2A323D"/>
<ellipse rx="6" ry="6.5" transform="matrix(-1 0 0 1 207 293.314)" fill="#464E59"/>
<rect width="34.1938" height="56.3053" rx="11.5" transform="matrix(-0.96142 -0.275086 -0.275086 0.96142 187.656 315.979)" fill="#1E222A"/>
<g filter="url(#filter6_d)">
<path fill-rule="evenodd" clip-rule="evenodd" d="M173.458 246.923L172.155 246.55C166.049 244.803 159.682 248.337 157.935 254.443L129.156 355.027C127.408 361.133 130.942 367.499 137.048 369.246L150.584 373.119C156.69 374.866 163.057 371.333 164.804 365.226L186.199 290.45H189.926C193.792 290.45 196.926 287.316 196.926 283.45V253.923C196.926 250.057 193.792 246.923 189.926 246.923H173.458Z" fill="#D4DBEE"/>
</g>
<path d="M194 254.814C194 250.396 197.582 246.814 202 246.814H271C273.761 246.814 276 249.053 276 251.814V273.814C276 278.233 272.418 281.814 268 281.814H202C197.582 281.814 194 278.233 194 273.814V254.814Z" fill="#2059F3"/>
<path d="M198 246.814C198 244.605 199.791 242.814 202 242.814H268C270.761 242.814 273 245.053 273 247.814V270.814C273 275.233 269.418 278.814 265 278.814H206C201.582 278.814 198 275.233 198 270.814V246.814Z" fill="#D4DBEE"/>
<g filter="url(#filter7_d)">
<circle cx="294.5" cy="255.314" r="5.5" fill="#E1E7F7"/>
</g>
<g filter="url(#filter8_d)">
<ellipse cx="305.5" cy="266.814" rx="5.5" ry="6" fill="#E1E7F7"/>
</g>
<g filter="url(#filter9_d)">
<ellipse cx="284.5" cy="266.814" rx="5.5" ry="6" fill="#E1E7F7"/>
</g>
<g filter="url(#filter10_d)">
<circle cx="297.5" cy="278.314" r="5.5" fill="#E1E7F7"/>
</g>
<g filter="url(#filter11_d)">
<path d="M187 258.814C187.552 258.814 188 259.262 188 259.814L188 266.814C188 267.367 187.552 267.814 187 267.814L179.5 267.814C178.119 267.814 177 266.695 177 265.314L177 261.314C177 259.934 178.119 258.814 179.5 258.814L187 258.814Z" fill="#E1E7F6"/>
</g>
<g filter="url(#filter12_d)">
<path d="M159.228 266.331C158.68 266.259 158.295 265.756 158.367 265.209L159.159 259.2C159.232 258.653 159.734 258.267 160.281 258.34L167.999 259.357C169.368 259.538 170.332 260.794 170.151 262.163L169.751 265.197C169.571 266.566 168.315 267.529 166.946 267.349L159.228 266.331Z" fill="#E1E7F6"/>
</g>
<g filter="url(#filter13_d)">
<path d="M170.828 249.528C170.898 248.98 171.399 248.593 171.947 248.663L177.959 249.433C178.506 249.503 178.894 250.004 178.823 250.552L177.835 258.273C177.66 259.643 176.407 260.611 175.038 260.436L172.002 260.047C170.632 259.872 169.664 258.619 169.84 257.25L170.828 249.528Z" fill="#E1E7F6"/>
</g>
<g filter="url(#filter14_d)">
<path d="M176.03 275.901C175.958 276.449 175.456 276.834 174.909 276.763L168.899 275.977C168.352 275.905 167.966 275.403 168.038 274.855L169.048 267.136C169.227 265.767 170.482 264.803 171.851 264.982L174.885 265.379C176.254 265.558 177.219 266.813 177.04 268.182L176.03 275.901Z" fill="#E1E7F6"/>
</g>
<rect x="371" y="281.814" width="65" height="88" rx="5" fill="#665346"/>
<rect x="371" y="281.814" width="65" height="88" rx="5" fill="#8B6142"/>
<rect x="335" y="281.814" width="67" height="88" rx="5" fill="#665346"/>
<rect x="335" y="281.814" width="67" height="88" rx="5" fill="#9F704E"/>
<rect x="327" y="273.814" width="81" height="21" rx="5" fill="#665346"/>
<rect x="327" y="273.814" width="81" height="21" rx="5" fill="#82CB9F"/>
<rect x="395" y="273.814" width="44" height="21" rx="5" fill="#665346"/>
<rect x="395" y="273.814" width="44" height="21" rx="5" fill="#69B788"/>
<path d="M381 257.854C376.245 266.974 379.415 273.054 379.811 273.814H379.414H375.849H364.755H360C368.558 270.774 364.094 262.161 360.792 258.234C362.377 259.754 365.785 263.554 366.736 266.594C367.687 269.634 365.811 272.674 364.755 273.814C366.736 273.434 369.509 273.814 369.905 269.254C370.209 265.763 368.981 258.361 367.528 254.814C369.852 256.486 373.464 266.374 375.372 272.304C374.453 268.526 374.665 262.081 381 257.854Z" fill="#82CB9F"/>
<path d="M415 259.014C419.755 268.614 416.585 275.014 416.189 275.814H416.586H420.151H431.245H436C427.442 272.614 431.906 263.548 435.208 259.414C433.623 261.014 430.215 265.014 429.264 268.214C428.313 271.414 430.189 274.614 431.245 275.814C429.264 275.414 426.491 275.814 426.095 271.014C425.791 267.339 427.019 259.548 428.472 255.814C426.148 257.574 422.536 267.983 420.628 274.224C421.547 270.248 421.335 263.463 415 259.014Z" fill="#82CB9F"/>
<rect x="292" y="187.814" width="49" height="47" rx="7" fill="#F3B454"/>
<rect x="321" y="148.814" width="31" height="31" rx="7" fill="#F3B454"/>
<rect x="290" y="132.814" width="21" height="21" rx="7" fill="#F3B454"/>
<rect x="321" y="113.814" width="11" height="11" rx="5.5" fill="#F3B454"/>
<rect x="282" y="187.814" width="48" height="47" rx="7" fill="#FFE145"/>
<rect x="314" y="148.814" width="31" height="31" rx="7" fill="#FFE145"/>
<rect x="285" y="132.814" width="21" height="21" rx="7" fill="#FFE145"/>
<rect x="318" y="113.814" width="11" height="11" rx="5.5" fill="#FFE145"/>
<rect x="206.01" y="136.6" width="9.04417" height="13.8164" rx="4.52208" fill="#673925"/>
<rect x="207.74" y="115.855" width="38.8707" height="19.3968" rx="9.69842" fill="#F22F2F"/>
<rect x="233.908" y="143.643" width="14.3167" height="17.0877" rx="7.15836" fill="#FFC1A6"/>
<rect x="221.711" y="119.166" width="24.4" height="18.0114" rx="9.00568" fill="#F22F2F"/>
<rect x="203.312" y="145.683" width="40.7565" height="23.4763" rx="11.7382" fill="#FFB99B"/>
<rect x="232.139" y="119.626" width="11.3918" height="13.9704" rx="5.6959" fill="#DF2222"/>
<rect x="208.816" y="131.44" width="35.5994" height="31.1735" rx="15.5868" fill="#FFC1A6"/>
<rect x="236.256" y="135.253" width="9.04417" height="13.8164" rx="4.52208" fill="#673925"/>
<rect x="230.832" y="128.363" width="9.04417" height="13.8164" rx="4.52208" fill="#673925"/>
<rect x="206.547" y="148.376" width="32.2511" height="18.0883" rx="9.04417" fill="#FFC1A6"/>
<rect x="212.855" y="125.168" width="29.3647" height="13.9704" rx="6.98518" fill="#DF2222"/>
<rect x="215.051" y="132.751" width="31.5584" height="6.38865" rx="3.19432" fill="#D13636"/>
<rect x="200.045" y="132.751" width="38.2934" height="7.73565" rx="3.86782" fill="#FF4F4F"/>
<path d="M228.468 129.649C228.049 130.775 227.33 131.684 226.435 132.222C225.54 132.759 224.524 132.892 223.559 132.597C222.595 132.302 221.742 131.598 221.146 130.604C220.55 129.611 220.248 128.39 220.291 127.149C220.334 125.908 220.72 124.724 221.382 123.799C222.045 122.874 222.943 122.265 223.924 122.075C224.906 121.886 225.909 122.128 226.763 122.761C227.618 123.393 228.27 124.377 228.61 125.544L224.578 127.381L228.468 129.649Z" fill="black"/>
<path d="M216.614 129.649C216.195 130.775 215.477 131.684 214.582 132.222C213.687 132.759 212.67 132.892 211.706 132.597C210.741 132.302 209.889 131.598 209.293 130.604C208.697 129.611 208.395 128.39 208.438 127.149C208.481 125.908 208.866 124.724 209.529 123.799C210.191 122.874 211.09 122.265 212.071 122.075C213.052 121.886 214.055 122.128 214.91 122.761C215.764 123.393 216.417 124.377 216.757 125.544L212.725 127.381L216.614 129.649Z" fill="black"/>
<path d="M229.754 147.47C229.429 148.343 228.869 149.045 228.172 149.453C227.475 149.86 226.686 149.947 225.943 149.698C225.2 149.449 224.551 148.88 224.11 148.09C223.668 147.301 223.463 146.343 223.53 145.383C223.597 144.423 223.931 143.523 224.475 142.841C225.018 142.16 225.736 141.74 226.502 141.655C227.269 141.571 228.034 141.828 228.664 142.38C229.294 142.932 229.749 143.745 229.948 144.676L226.789 145.738L229.754 147.47Z" fill="black"/>
<path d="M219.981 147.47C219.661 148.329 219.113 149.023 218.431 149.434C217.749 149.844 216.974 149.945 216.239 149.72C215.504 149.495 214.853 148.957 214.399 148.199C213.945 147.44 213.714 146.508 213.747 145.561C213.78 144.613 214.074 143.709 214.579 143.003C215.084 142.297 215.769 141.832 216.517 141.688C217.265 141.543 218.03 141.728 218.681 142.211C219.333 142.694 219.83 143.445 220.089 144.336L217.015 145.738L219.981 147.47Z" fill="black"/>
<rect x="208.816" y="151.646" width="24.2076" height="9.08265" rx="4.54133" fill="#673925"/>
<rect x="213.014" y="147.338" width="11.1994" height="11.1609" rx="5.58044" fill="#FFCFBB"/>
<rect x="208.582" y="170.969" width="38.4088" height="36.9849" rx="18.4924" fill="#F10808"/>
<rect x="227.098" y="202.294" width="19.9741" height="16.5489" rx="8.27445" fill="#1D47B1"/>
<path d="M235.353 229.138C231.453 225.238 231.453 218.914 235.353 215.014C239.253 211.114 245.577 211.114 249.477 215.014L250.45 215.987C250.867 216.404 250.867 217.08 250.45 217.497L237.836 230.111C237.419 230.528 236.743 230.528 236.326 230.111L235.353 229.138Z" fill="#D37B3B"/>
<rect x="237.047" y="181.572" width="12.8543" height="25.9786" rx="6.42713" transform="rotate(-45 237.047 181.572)" fill="#F10808"/>
<rect x="238.377" y="181.224" width="6.93987" height="23.8905" rx="3.46993" transform="rotate(-45 238.377 181.224)" fill="#D91717"/>
<rect x="250.77" y="196.275" width="15.2715" height="7.58786" rx="3.79393" transform="rotate(-45 250.77 196.275)" fill="#EBEBEB"/>
<rect x="255.27" y="192.096" width="14.2013" height="14.3937" rx="7.10063" fill="white"/>
<rect x="218.467" y="176.686" width="12.8543" height="25.9786" rx="6.42713" transform="rotate(125.616 218.467 176.686)" fill="#D92323"/>
<rect x="237.846" y="187.135" width="12.8543" height="25.9786" rx="6.42713" transform="rotate(125.616 237.846 187.135)" fill="#D92323"/>
<rect x="249.311" y="192.372" width="12.8543" height="25.9786" rx="6.42713" transform="rotate(148.566 249.311 192.372)" fill="#D92323"/>
<rect x="202.537" y="164.417" width="15.2715" height="7.58786" rx="3.79393" transform="rotate(125.616 202.537 164.417)" fill="#EBEBEB"/>
<rect x="198.775" y="169.273" width="14.2013" height="14.3937" rx="7.10063" transform="rotate(170.616 198.775 169.273)" fill="white"/>
<rect x="226.598" y="170.352" width="11.2379" height="17.8959" rx="5.61893" fill="#3D548D"/>
<rect x="209.668" y="171.351" width="11.2379" height="16.8953" rx="5.61893" fill="#3D548D"/>
<path d="M206.738 190.477C206.738 188.119 208.65 186.207 211.008 186.207H242.302C245.149 186.207 247.456 188.515 247.456 191.361C247.456 202.33 238.564 211.223 227.595 211.223H227.097C215.853 211.223 206.738 202.108 206.738 190.864V190.477Z" fill="#2656D1"/>
<path d="M208.582 193.62C208.582 190.758 210.902 188.438 213.764 188.438H235.335C237.5 188.438 239.255 190.193 239.255 192.358C239.255 200.162 232.929 206.488 225.125 206.488H221.45C214.343 206.488 208.582 200.727 208.582 193.62Z" fill="#4A78EE"/>
<rect x="200.926" y="200.023" width="19.9741" height="16.5489" rx="8.27445" fill="#1D47B1"/>
<rect x="223.559" y="179.433" width="10.3527" height="10.3527" rx="5.17634" fill="#FFD600"/>
<rect x="208.475" y="179.433" width="10.3527" height="10.3527" rx="5.17634" fill="#FFD600"/>
<path d="M217.275 185.935C216.969 186.765 216.389 187.467 215.631 187.923C214.873 188.379 213.981 188.563 213.104 188.444C212.227 188.325 211.417 187.91 210.808 187.268C210.199 186.626 209.827 185.795 209.754 184.913C209.68 184.031 209.91 183.151 210.406 182.417C210.901 181.684 211.632 181.141 212.477 180.879C213.322 180.617 214.232 180.652 215.055 180.977C215.878 181.302 216.566 181.898 217.004 182.667L213.627 184.592L217.275 185.935Z" fill="#FFBE17"/>
<path d="M232.363 185.935C232.057 186.765 231.477 187.467 230.719 187.923C229.961 188.379 229.069 188.563 228.192 188.444C227.315 188.325 226.505 187.91 225.896 187.268C225.287 186.626 224.915 185.795 224.841 184.913C224.768 184.031 224.998 183.151 225.494 182.417C225.989 181.684 226.719 181.141 227.565 180.879C228.41 180.617 229.32 180.652 230.143 180.977C230.966 181.302 231.654 181.898 232.092 182.667L228.715 184.592L232.363 185.935Z" fill="#FFBE17"/>
<path d="M195.499 204.507C199.399 200.607 205.722 200.607 209.622 204.507C213.523 208.407 213.523 214.731 209.622 218.631L208.731 219.523C208.269 219.985 207.52 219.985 207.058 219.523L194.542 207.007C194.116 206.581 194.116 205.89 194.542 205.464L195.499 204.507Z" fill="#DE813E"/>
<rect x="198.234" y="53.2012" width="55.4965" height="55.4965" rx="5" fill="#E95121"/>
<rect x="201.043" y="56.0098" width="49.8776" height="49.8776" rx="5" fill="#FFB800"/>
<rect x="242.338" y="60.708" width="7.58171" height="37.3697" rx="3.79085" fill="#FFE03D"/>
<rect width="39.5634" height="7.19685" rx="3.59842" transform="matrix(-1 0 0 1 245.494 57.1279)" fill="#FFE03D"/>
<path d="M235.514 77.3516C235.514 78.3945 235.314 79.3789 234.916 80.3047C234.529 81.2188 233.99 82.0215 233.299 82.7129C232.619 83.3926 231.816 83.9316 230.891 84.3301C229.977 84.7285 228.998 84.9277 227.955 84.9277C227.592 84.9277 227.27 84.9922 226.988 85.1211C226.719 85.25 226.49 85.4316 226.303 85.666C226.127 85.8887 225.992 86.1523 225.898 86.457C225.805 86.7617 225.758 87.0898 225.758 87.4414V88.7773H220.73V87.3711C220.742 86.3398 220.924 85.3672 221.275 84.4531C221.639 83.5391 222.137 82.748 222.77 82.0801C223.414 81.4004 224.176 80.8672 225.055 80.4805C225.934 80.082 226.9 79.8828 227.955 79.8828C228.307 79.8828 228.635 79.8184 228.939 79.6895C229.244 79.5605 229.508 79.3848 229.73 79.1621C229.965 78.9277 230.146 78.6582 230.275 78.3535C230.416 78.0371 230.486 77.7031 230.486 77.3516C230.486 77 230.416 76.6719 230.275 76.3672C230.146 76.0625 229.965 75.7988 229.73 75.5762C229.508 75.3418 229.244 75.1602 228.939 75.0312C228.635 74.9023 228.307 74.8379 227.955 74.8379H216.406V69.793H227.955C228.998 69.793 229.977 69.9922 230.891 70.3906C231.816 70.7891 232.619 71.334 233.299 72.0254C233.99 72.7051 234.529 73.502 234.916 74.416C235.314 75.3301 235.514 76.3086 235.514 77.3516ZM226.268 93.207C226.268 93.6289 226.186 94.0273 226.021 94.4023C225.869 94.7656 225.658 95.082 225.389 95.3516C225.119 95.6211 224.803 95.832 224.439 95.9844C224.076 96.1484 223.689 96.2305 223.279 96.2305C222.869 96.2305 222.477 96.1484 222.102 95.9844C221.738 95.832 221.416 95.6211 221.135 95.3516C220.865 95.082 220.648 94.7656 220.484 94.4023C220.332 94.0273 220.256 93.6289 220.256 93.207C220.256 92.7969 220.332 92.4102 220.484 92.0469C220.648 91.6836 220.865 91.3672 221.135 91.0977C221.416 90.8281 221.738 90.6172 222.102 90.4648C222.477 90.3008 222.869 90.2188 223.279 90.2188C223.689 90.2188 224.076 90.3008 224.439 90.4648C224.803 90.6172 225.119 90.8281 225.389 91.0977C225.658 91.3672 225.869 91.6836 226.021 92.0469C226.186 92.4102 226.268 92.7969 226.268 93.207Z" fill="#E95121"/>
<circle cx="245.765" cy="61.0147" r="4.8877" fill="#F29B34"/>
<circle cx="246.976" cy="60.0333" r="3.44448" fill="#FFE03D"/>
<circle cx="245.765" cy="100.692" r="4.8877" fill="#F29B34"/>
<circle cx="246.976" cy="99.7111" r="3.44448" fill="#FFE03D"/>
<circle cx="205.931" cy="100.692" r="4.8877" fill="#F29B34"/>
<circle cx="207.144" cy="99.7111" r="3.44448" fill="#FFE03D"/>
<circle cx="205.7" cy="60.0147" r="4.8877" fill="#F29B34"/>
<circle cx="206.913" cy="59.0324" r="3.44448" fill="#FFE03D"/>
<rect x="215.438" y="9.94336" width="23.5148" height="38.101" rx="11.7574" fill="#FFB800"/>
<rect x="211.666" y="9.94336" width="23.5148" height="38.101" rx="11.7574" fill="#FFF500"/>
<rect x="217.555" y="16.6387" width="14.2782" height="23.9382" rx="7.13912" fill="#FF9900"/>
<rect x="214.975" y="16.6387" width="14.2782" height="23.9382" rx="7.13912" fill="#FFF500"/>
<path d="M88.0222 187.72C86.599 177.024 94.3055 167.175 105.001 165.751C115.489 164.356 125.309 171.702 126.704 182.19L127.015 184.521C128.601 196.446 120.221 207.4 108.296 208.986C98.8294 210.246 90.1344 203.593 88.8748 194.127L88.0222 187.72Z" fill="#242121"/>
<path d="M98.471 183.754C97.6543 177.616 101.968 171.979 108.106 171.162C114.243 170.345 119.881 174.659 120.698 180.797L122.285 192.723C123.196 199.567 118.386 205.852 111.543 206.763C106.11 207.486 101.121 203.668 100.398 198.236L98.471 183.754Z" fill="#F8F8F8"/>
<rect x="116.232" y="190.73" width="21.3128" height="17.9827" rx="8.99135" transform="rotate(21.8796 116.232 190.73)" fill="#EFA71C"/>
<path d="M73.2307 148.927C71.2091 133.734 81.8863 119.779 97.0789 117.758L98.7801 117.531C113.033 115.635 126.125 125.652 128.022 139.905L128.266 141.745C130.52 158.684 118.616 174.243 101.677 176.497C88.2307 178.286 75.8798 168.836 74.0906 155.39L73.2307 148.927Z" fill="#3C3838"/>
<path d="M103.586 131.336C102.818 125.563 106.875 120.26 112.649 119.492C118.422 118.724 123.725 122.781 124.493 128.554L127.232 149.14C128.088 155.576 123.565 161.489 117.128 162.345C112.018 163.025 107.325 159.434 106.645 154.324L103.586 131.336Z" fill="#555050"/>
<rect x="85.4375" y="134.312" width="16.2344" height="28.8611" rx="8.1172" transform="rotate(-7.57938 85.4375 134.312)" fill="#D3D3D3"/>
<rect x="85.4375" y="134.312" width="16.2344" height="28.8611" rx="8.1172" transform="rotate(-7.57938 85.4375 134.312)" fill="#D3D3D3"/>
<rect x="88.2637" y="136.017" width="13.1421" height="24.9958" rx="6.57106" transform="rotate(-7.57938 88.2637 136.017)" fill="#D3D3D3"/>
<rect x="88.2637" y="136.017" width="13.1421" height="24.9958" rx="6.57106" transform="rotate(-7.57938 88.2637 136.017)" fill="#FAFAFA"/>
<rect x="94" y="142.011" width="7.73066" height="11.596" rx="3.86533" transform="rotate(-7.57938 94 142.011)" fill="#D3D3D3"/>
<rect x="94" y="142.011" width="7.73066" height="11.596" rx="3.86533" transform="rotate(-7.57938 94 142.011)" fill="#262323"/>
<rect x="95.6348" y="142.574" width="5.15377" height="8.50373" rx="2.57689" transform="rotate(-7.57938 95.6348 142.574)" fill="#D3D3D3"/>
<rect x="95.6348" y="142.574" width="5.15377" height="8.50373" rx="2.57689" transform="rotate(-7.57938 95.6348 142.574)" fill="#615757"/>
<rect x="96.6543" y="142.437" width="5.15377" height="5.15377" rx="2.57689" transform="rotate(-7.57938 96.6543 142.437)" fill="#D3D3D3"/>
<rect x="96.6543" y="142.437" width="5.15377" height="5.15377" rx="2.57689" transform="rotate(-7.57938 96.6543 142.437)" fill="white"/>
<rect x="99.4473" y="147.786" width="2.83458" height="2.83458" rx="1.41729" transform="rotate(-7.57938 99.4473 147.786)" fill="#D3D3D3"/>
<rect x="99.4473" y="147.786" width="2.83458" height="2.83458" rx="1.41729" transform="rotate(-7.57938 99.4473 147.786)" fill="white"/>
<rect x="105.617" y="131.627" width="16.2344" height="28.8611" rx="8.1172" transform="rotate(-7.57938 105.617 131.627)" fill="#D3D3D3"/>
<rect x="105.617" y="131.627" width="16.2344" height="28.8611" rx="8.1172" transform="rotate(-7.57938 105.617 131.627)" fill="#D3D3D3"/>
<rect x="108.439" y="133.331" width="13.1421" height="24.9958" rx="6.57106" transform="rotate(-7.57938 108.439 133.331)" fill="#D3D3D3"/>
<rect x="108.439" y="133.331" width="13.1421" height="24.9958" rx="6.57106" transform="rotate(-7.57938 108.439 133.331)" fill="#FAFAFA"/>
<rect x="114.18" y="139.325" width="7.73066" height="11.596" rx="3.86533" transform="rotate(-7.57938 114.18 139.325)" fill="#D3D3D3"/>
<rect x="114.18" y="139.325" width="7.73066" height="11.596" rx="3.86533" transform="rotate(-7.57938 114.18 139.325)" fill="#262323"/>
<rect x="115.811" y="139.89" width="5.15377" height="8.50373" rx="2.57689" transform="rotate(-7.57938 115.811 139.89)" fill="#D3D3D3"/>
<rect x="115.811" y="139.89" width="5.15377" height="8.50373" rx="2.57689" transform="rotate(-7.57938 115.811 139.89)" fill="#615757"/>
<rect x="116.836" y="139.753" width="5.15377" height="5.15377" rx="2.57689" transform="rotate(-7.57938 116.836 139.753)" fill="#D3D3D3"/>
<rect x="116.836" y="139.753" width="5.15377" height="5.15377" rx="2.57689" transform="rotate(-7.57938 116.836 139.753)" fill="white"/>
<rect x="119.625" y="145.101" width="2.83458" height="2.83458" rx="1.41729" transform="rotate(-7.57938 119.625 145.101)" fill="#D3D3D3"/>
<rect x="119.625" y="145.101" width="2.83458" height="2.83458" rx="1.41729" transform="rotate(-7.57938 119.625 145.101)" fill="white"/>
<path d="M92.6941 168.979C92.2881 165.928 94.4323 163.126 97.4833 162.72L125.52 158.989C130.32 158.351 134.73 161.725 135.369 166.525C136.008 171.326 132.634 175.736 127.833 176.375L106.133 179.262C99.5827 180.134 93.5657 175.53 92.6941 168.979Z" fill="#FFBD3C"/>
<path d="M92.6941 168.979C92.2881 165.928 94.4323 163.126 97.4833 162.72L125.52 158.989C130.32 158.351 134.73 161.725 135.369 166.525C136.008 171.326 132.634 175.736 127.833 176.375L106.133 179.262C99.5827 180.134 93.5657 175.53 92.6941 168.979Z" fill="#FFBD3C"/>
<path d="M96.4024 167.981C96.1748 166.271 97.377 164.699 99.0877 164.472L128.179 160.601C130.871 160.243 133.343 162.134 133.701 164.826C134.059 167.518 132.168 169.99 129.476 170.349L103.938 173.747C100.265 174.236 96.8911 171.654 96.4024 167.981Z" fill="#FFBD3B"/>
<path d="M118.621 164.854C118.506 163.987 119.115 163.19 119.983 163.074L129.905 161.754C131.27 161.572 132.524 162.532 132.706 163.897C132.888 165.262 131.928 166.516 130.563 166.698L122.443 167.778C120.58 168.026 118.869 166.717 118.621 164.854Z" fill="#FDFF9A"/>
<path d="M87.0681 190.662C86.174 187.333 88.1476 183.91 91.4763 183.016L114.35 176.872C116.138 183.529 112.191 190.376 105.534 192.164L94.7142 195.07C91.3855 195.964 87.9623 193.991 87.0681 190.662Z" fill="#3D3D3D"/>
<path d="M90.9861 187.051C90.6076 185.642 91.443 184.193 92.852 183.815L113.055 178.388C113.811 181.206 112.141 184.104 109.323 184.861L94.2226 188.917C92.8136 189.296 91.3645 188.46 90.9861 187.051Z" fill="#595959"/>
<path d="M118.98 184.544C118.609 181.135 121.034 177.821 124.396 177.143L140.054 173.985L140.197 175.306C140.86 181.395 136.53 187.314 130.525 188.525L125.74 189.49C122.378 190.168 119.352 187.954 118.98 184.544Z" fill="#3D3D3D"/>
<path d="M122.14 181.408C121.983 179.965 123.009 178.562 124.432 178.275L138.975 175.342C139.29 178.228 137.237 181.034 134.391 181.608L125.001 183.502C123.578 183.789 122.297 182.851 122.14 181.408Z" fill="#595959"/>
<rect x="88.2012" y="204.197" width="21.3128" height="17.9827" rx="8.99135" transform="rotate(-26.8074 88.2012 204.197)" fill="#FFBD3B"/>
<rect x="96.2578" y="202.088" width="11.006" height="8.65716" rx="4.32858" transform="rotate(-26.8074 96.2578 202.088)" fill="#FFEB3B"/>
<rect x="384.102" y="112.936" width="50.8968" height="29.9393" transform="rotate(37.3452 384.102 112.936)" fill="#C4C4C4"/>
<circle cx="411.854" cy="160.471" r="20.9575" transform="rotate(37.3452 411.854 160.471)" fill="#C4C4C4"/>
<circle cx="371.391" cy="129.597" r="20.9575" transform="rotate(37.3452 371.391 129.597)" fill="#C4C4C4"/>
<circle cx="419.118" cy="150.95" r="5.98785" transform="rotate(37.3452 419.118 150.95)" fill="#FFD600"/>
<circle cx="421.374" cy="167.736" r="5.98785" transform="rotate(37.3452 421.374 167.736)" fill="#77FF74"/>
<circle cx="404.587" cy="169.993" r="5.98785" transform="rotate(37.3452 404.587 169.993)" fill="#53B6EE"/>
<circle cx="402.333" cy="153.207" r="5.98785" transform="rotate(37.3452 402.333 153.207)" fill="#EF4040"/>
<circle cx="371.389" cy="129.597" r="8.98178" transform="rotate(37.3452 371.389 129.597)" fill="#747474"/>
<path d="M304.082 60.1194C304.531 58.6469 306.406 58.2134 307.457 59.3391L340.828 95.1052C341.879 96.2309 341.317 98.0714 339.817 98.4182L292.156 109.436C290.656 109.783 289.344 108.376 289.793 106.903L304.082 60.1194Z" fill="#FFD850"/>
<path d="M349.63 49.5891C350.08 48.1166 351.955 47.6832 353.006 48.8089L386.377 84.5749C387.428 85.7006 386.865 87.5412 385.365 87.8879L337.705 98.9057C336.205 99.2524 334.892 97.8453 335.342 96.3729L349.63 49.5891Z" fill="#FFD850"/>
<path d="M316.994 15.7688C317.443 14.2963 319.319 13.8629 320.369 14.9886L353.741 50.7546C354.791 51.8803 354.229 53.7209 352.729 54.0676L305.069 65.0854C303.569 65.4321 302.256 64.025 302.705 62.5526L316.994 15.7688Z" fill="#FFD850"/>
<path d="M297.916 54.926C298.365 53.4535 300.24 53.0201 301.291 54.1458L334.662 89.9118C335.713 91.0375 335.151 92.8781 333.651 93.2249L285.99 104.243C284.49 104.589 283.177 103.182 283.627 101.71L297.916 54.926Z" fill="#FFF279"/>
<path d="M343.468 44.3948C343.918 42.9223 345.793 42.4888 346.843 43.6145L380.215 79.3806C381.266 80.5063 380.703 82.3468 379.203 82.6936L331.543 93.7113C330.043 94.0581 328.73 92.651 329.18 91.1785L343.468 44.3948Z" fill="#FFF279"/>
<path d="M310.83 10.5754C311.279 9.10296 313.154 8.6695 314.205 9.79519L347.577 45.5612C348.627 46.6869 348.065 48.5275 346.565 48.8743L298.905 59.892C297.404 60.2388 296.092 58.8317 296.541 57.3592L310.83 10.5754Z" fill="#FFF279"/>
<rect x="61" y="210.814" width="73" height="162" rx="7" fill="#548F5A"/>
<g filter="url(#filter15_d)">
<rect x="47" y="203.814" width="102" height="33" rx="7" fill="#80C787"/>
</g>
<defs>
<filter id="filter0_d" x="0" y="93" width="504" height="314" filterUnits="userSpaceOnUse" color-interpolation-filters="sRGB">
<feFlood flood-opacity="0" result="BackgroundImageFix"/>
<feColorMatrix in="SourceAlpha" type="matrix" values="0 0 0 0 0 0 0 0 0 0 0 0 0 0 0 0 0 0 127 0"/>
<feOffset dy="11"/>
<feGaussianBlur stdDeviation="13"/>
<feColorMatrix type="matrix" values="0 0 0 0 0 0 0 0 0 0 0 0 0 0 0 0 0 0 0.25 0"/>
<feBlend mode="normal" in2="BackgroundImageFix" result="effect1_dropShadow"/>
<feBlend mode="normal" in="SourceGraphic" in2="effect1_dropShadow" result="shape"/>
</filter>
<filter id="filter1_d" x="217" y="273.814" width="87" height="56" filterUnits="userSpaceOnUse" color-interpolation-filters="sRGB">
<feFlood flood-opacity="0" result="BackgroundImageFix"/>
<feColorMatrix in="SourceAlpha" type="matrix" values="0 0 0 0 0 0 0 0 0 0 0 0 0 0 0 0 0 0 127 0"/>
<feOffset/>
<feGaussianBlur stdDeviation="2"/>
<feColorMatrix type="matrix" values="0 0 0 0 0 0 0 0 0 0 0 0 0 0 0 0 0 0 0.1 0"/>
<feBlend mode="normal" in2="BackgroundImageFix" result="effect1_dropShadow"/>
<feBlend mode="normal" in="SourceGraphic" in2="effect1_dropShadow" result="shape"/>
</filter>
<filter id="filter2_d" x="247" y="280.814" width="31" height="31" filterUnits="userSpaceOnUse" color-interpolation-filters="sRGB">
<feFlood flood-opacity="0" result="BackgroundImageFix"/>
<feColorMatrix in="SourceAlpha" type="matrix" values="0 0 0 0 0 0 0 0 0 0 0 0 0 0 0 0 0 0 127 0"/>
<feOffset dy="1"/>
<feGaussianBlur stdDeviation="2"/>
<feColorMatrix type="matrix" values="0 0 0 0 0 0 0 0 0 0 0 0 0 0 0 0 0 0 0.5 0"/>
<feBlend mode="normal" in2="BackgroundImageFix" result="effect1_dropShadow"/>
<feBlend mode="normal" in="SourceGraphic" in2="effect1_dropShadow" result="shape"/>
</filter>
<filter id="filter3_d" x="268.695" y="242.104" width="76.6199" height="135.462" filterUnits="userSpaceOnUse" color-interpolation-filters="sRGB">
<feFlood flood-opacity="0" result="BackgroundImageFix"/>
<feColorMatrix in="SourceAlpha" type="matrix" values="0 0 0 0 0 0 0 0 0 0 0 0 0 0 0 0 0 0 127 0"/>
<feOffset/>
<feGaussianBlur stdDeviation="2"/>
<feColorMatrix type="matrix" values="0 0 0 0 0 0 0 0 0 0 0 0 0 0 0 0 0 0 0.1 0"/>
<feBlend mode="normal" in2="BackgroundImageFix" result="effect1_dropShadow"/>
<feBlend mode="normal" in="SourceGraphic" in2="effect1_dropShadow" result="shape"/>
</filter>
<filter id="filter4_d" x="166" y="273.814" width="86" height="56" filterUnits="userSpaceOnUse" color-interpolation-filters="sRGB">
<feFlood flood-opacity="0" result="BackgroundImageFix"/>
<feColorMatrix in="SourceAlpha" type="matrix" values="0 0 0 0 0 0 0 0 0 0 0 0 0 0 0 0 0 0 127 0"/>
<feOffset/>
<feGaussianBlur stdDeviation="2"/>
<feColorMatrix type="matrix" values="0 0 0 0 0 0 0 0 0 0 0 0 0 0 0 0 0 0 0.1 0"/>
<feBlend mode="normal" in2="BackgroundImageFix" result="effect1_dropShadow"/>
<feBlend mode="normal" in="SourceGraphic" in2="effect1_dropShadow" result="shape"/>
</filter>
<filter id="filter5_d" x="192" y="280.814" width="30" height="31" filterUnits="userSpaceOnUse" color-interpolation-filters="sRGB">
<feFlood flood-opacity="0" result="BackgroundImageFix"/>
<feColorMatrix in="SourceAlpha" type="matrix" values="0 0 0 0 0 0 0 0 0 0 0 0 0 0 0 0 0 0 127 0"/>
<feOffset dy="1"/>
<feGaussianBlur stdDeviation="2"/>
<feColorMatrix type="matrix" values="0 0 0 0 0 0 0 0 0 0 0 0 0 0 0 0 0 0 0.5 0"/>
<feBlend mode="normal" in2="BackgroundImageFix" result="effect1_dropShadow"/>
<feBlend mode="normal" in="SourceGraphic" in2="effect1_dropShadow" result="shape"/>
</filter>
<filter id="filter6_d" x="124.709" y="242.104" width="76.2169" height="135.462" filterUnits="userSpaceOnUse" color-interpolation-filters="sRGB">
<feFlood flood-opacity="0" result="BackgroundImageFix"/>
<feColorMatrix in="SourceAlpha" type="matrix" values="0 0 0 0 0 0 0 0 0 0 0 0 0 0 0 0 0 0 127 0"/>
<feOffset/>
<feGaussianBlur stdDeviation="2"/>
<feColorMatrix type="matrix" values="0 0 0 0 0 0 0 0 0 0 0 0 0 0 0 0 0 0 0.1 0"/>
<feBlend mode="normal" in2="BackgroundImageFix" result="effect1_dropShadow"/>
<feBlend mode="normal" in="SourceGraphic" in2="effect1_dropShadow" result="shape"/>
</filter>
<filter id="filter7_d" x="285" y="245.814" width="19" height="19" filterUnits="userSpaceOnUse" color-interpolation-filters="sRGB">
<feFlood flood-opacity="0" result="BackgroundImageFix"/>
<feColorMatrix in="SourceAlpha" type="matrix" values="0 0 0 0 0 0 0 0 0 0 0 0 0 0 0 0 0 0 127 0"/>
<feOffset/>
<feGaussianBlur stdDeviation="2"/>
<feColorMatrix type="matrix" values="0 0 0 0 0 0 0 0 0 0 0 0 0 0 0 0 0 0 0.1 0"/>
<feBlend mode="normal" in2="BackgroundImageFix" result="effect1_dropShadow"/>
<feBlend mode="normal" in="SourceGraphic" in2="effect1_dropShadow" result="shape"/>
</filter>
<filter id="filter8_d" x="296" y="256.814" width="19" height="20" filterUnits="userSpaceOnUse" color-interpolation-filters="sRGB">
<feFlood flood-opacity="0" result="BackgroundImageFix"/>
<feColorMatrix in="SourceAlpha" type="matrix" values="0 0 0 0 0 0 0 0 0 0 0 0 0 0 0 0 0 0 127 0"/>
<feOffset/>
<feGaussianBlur stdDeviation="2"/>
<feColorMatrix type="matrix" values="0 0 0 0 0 0 0 0 0 0 0 0 0 0 0 0 0 0 0.1 0"/>
<feBlend mode="normal" in2="BackgroundImageFix" result="effect1_dropShadow"/>
<feBlend mode="normal" in="SourceGraphic" in2="effect1_dropShadow" result="shape"/>
</filter>
<filter id="filter9_d" x="275" y="256.814" width="19" height="20" filterUnits="userSpaceOnUse" color-interpolation-filters="sRGB">
<feFlood flood-opacity="0" result="BackgroundImageFix"/>
<feColorMatrix in="SourceAlpha" type="matrix" values="0 0 0 0 0 0 0 0 0 0 0 0 0 0 0 0 0 0 127 0"/>
<feOffset/>
<feGaussianBlur stdDeviation="2"/>
<feColorMatrix type="matrix" values="0 0 0 0 0 0 0 0 0 0 0 0 0 0 0 0 0 0 0.1 0"/>
<feBlend mode="normal" in2="BackgroundImageFix" result="effect1_dropShadow"/>
<feBlend mode="normal" in="SourceGraphic" in2="effect1_dropShadow" result="shape"/>
</filter>
<filter id="filter10_d" x="288" y="268.814" width="19" height="19" filterUnits="userSpaceOnUse" color-interpolation-filters="sRGB">
<feFlood flood-opacity="0" result="BackgroundImageFix"/>
<feColorMatrix in="SourceAlpha" type="matrix" values="0 0 0 0 0 0 0 0 0 0 0 0 0 0 0 0 0 0 127 0"/>
<feOffset/>
<feGaussianBlur stdDeviation="2"/>
<feColorMatrix type="matrix" values="0 0 0 0 0 0 0 0 0 0 0 0 0 0 0 0 0 0 0.1 0"/>
<feBlend mode="normal" in2="BackgroundImageFix" result="effect1_dropShadow"/>
<feBlend mode="normal" in="SourceGraphic" in2="effect1_dropShadow" result="shape"/>
</filter>
<filter id="filter11_d" x="173" y="254.814" width="19" height="17" filterUnits="userSpaceOnUse" color-interpolation-filters="sRGB">
<feFlood flood-opacity="0" result="BackgroundImageFix"/>
<feColorMatrix in="SourceAlpha" type="matrix" values="0 0 0 0 0 0 0 0 0 0 0 0 0 0 0 0 0 0 127 0"/>
<feOffset/>
<feGaussianBlur stdDeviation="2"/>
<feColorMatrix type="matrix" values="0 0 0 0 0 0 0 0 0 0 0 0 0 0 0 0 0 0 0.1 0"/>
<feBlend mode="normal" in2="BackgroundImageFix" result="effect1_dropShadow"/>
<feBlend mode="normal" in="SourceGraphic" in2="effect1_dropShadow" result="shape"/>
</filter>
<filter id="filter12_d" x="154.357" y="254.331" width="19.8146" height="17.0395" filterUnits="userSpaceOnUse" color-interpolation-filters="sRGB">
<feFlood flood-opacity="0" result="BackgroundImageFix"/>
<feColorMatrix in="SourceAlpha" type="matrix" values="0 0 0 0 0 0 0 0 0 0 0 0 0 0 0 0 0 0 127 0"/>
<feOffset/>
<feGaussianBlur stdDeviation="2"/>
<feColorMatrix type="matrix" values="0 0 0 0 0 0 0 0 0 0 0 0 0 0 0 0 0 0 0.1 0"/>
<feBlend mode="normal" in2="BackgroundImageFix" result="effect1_dropShadow"/>
<feBlend mode="normal" in="SourceGraphic" in2="effect1_dropShadow" result="shape"/>
</filter>
<filter id="filter13_d" x="165.818" y="244.655" width="17.0125" height="19.8013" filterUnits="userSpaceOnUse" color-interpolation-filters="sRGB">
<feFlood flood-opacity="0" result="BackgroundImageFix"/>
<feColorMatrix in="SourceAlpha" type="matrix" values="0 0 0 0 0 0 0 0 0 0 0 0 0 0 0 0 0 0 127 0"/>
<feOffset/>
<feGaussianBlur stdDeviation="2"/>
<feColorMatrix type="matrix" values="0 0 0 0 0 0 0 0 0 0 0 0 0 0 0 0 0 0 0.1 0"/>
<feBlend mode="normal" in2="BackgroundImageFix" result="effect1_dropShadow"/>
<feBlend mode="normal" in="SourceGraphic" in2="effect1_dropShadow" result="shape"/>
</filter>
<filter id="filter14_d" x="164.029" y="260.96" width="17.0323" height="19.811" filterUnits="userSpaceOnUse" color-interpolation-filters="sRGB">
<feFlood flood-opacity="0" result="BackgroundImageFix"/>
<feColorMatrix in="SourceAlpha" type="matrix" values="0 0 0 0 0 0 0 0 0 0 0 0 0 0 0 0 0 0 127 0"/>
<feOffset/>
<feGaussianBlur stdDeviation="2"/>
<feColorMatrix type="matrix" values="0 0 0 0 0 0 0 0 0 0 0 0 0 0 0 0 0 0 0.1 0"/>
<feBlend mode="normal" in2="BackgroundImageFix" result="effect1_dropShadow"/>
<feBlend mode="normal" in="SourceGraphic" in2="effect1_dropShadow" result="shape"/>
</filter>
<filter id="filter15_d" x="43" y="199.814" width="110" height="41" filterUnits="userSpaceOnUse" color-interpolation-filters="sRGB">
<feFlood flood-opacity="0" result="BackgroundImageFix"/>
<feColorMatrix in="SourceAlpha" type="matrix" values="0 0 0 0 0 0 0 0 0 0 0 0 0 0 0 0 0 0 127 0"/>
<feOffset/>
<feGaussianBlur stdDeviation="2"/>
<feColorMatrix type="matrix" values="0 0 0 0 0 0 0 0 0 0 0 0 0 0 0 0 0 0 0.1 0"/>
<feBlend mode="normal" in2="BackgroundImageFix" result="effect1_dropShadow"/>
<feBlend mode="normal" in="SourceGraphic" in2="effect1_dropShadow" result="shape"/>
</filter>
</defs>
</svg>
